<svg width="36" height="36" viewBox="0 0 36 36" fill="none" xmlns="http://www.w3.org/2000/svg">
<path d="M7.3079 5.54487C6.90926 5.92711 6.89596 6.56013 7.2782 6.95877C7.66044 7.35741 8.29347 7.3707 8.6921 6.98846L7.3079 5.54487ZM8.6921 29.0115C8.29347 28.6293 7.66044 28.6426 7.2782 29.0412C6.89596 29.4399 6.90926 30.0729 7.3079 30.4551L8.6921 29.0115ZM2 17C1.44772 17 1 17.4477 1 18C1 18.5523 1.44772 19 2 19V17ZM24 18L24.7071 18.7071C25.0976 18.3166 25.0976 17.6834 24.7071 17.2929L24 18ZM17.2929 23.2929C16.9024 23.6834 16.9024 24.3166 17.2929 24.7071C17.6834 25.0976 18.3166 25.0976 18.7071 24.7071L17.2929 23.2929ZM18.7071 11.2929C18.3166 10.9024 17.6834 10.9024 17.2929 11.2929C16.9024 11.6834 16.9024 12.3166 17.2929 12.7071L18.7071 11.2929ZM33 18C33 26.3158 26.4872 33 18.5227 33V35C27.6539 35 35 27.3573 35 18H33ZM18.5227 3C26.4872 3 33 9.68416 33 18H35C35 8.64273 27.6539 1 18.5227 1V3ZM8.6921 6.98846C11.2781 4.50887 14.7316 3 18.5227 3V1C14.1867 1 10.2448 2.72879 7.3079 5.54487L8.6921 6.98846ZM18.5227 33C14.7316 33 11.2781 31.4911 8.6921 29.0115L7.3079 30.4551C10.2448 33.2712 14.1867 35 18.5227 35V33ZM2 19H24V17H2V19ZM23.2929 17.2929L17.2929 23.2929L18.7071 24.7071L24.7071 18.7071L23.2929 17.2929ZM24.7071 17.2929L18.7071 11.2929L17.2929 12.7071L23.2929 18.7071L24.7071 17.2929Z" fill="white"/>
</svg>
