<svg width="219" height="50" fill="none" xmlns="http://www.w3.org/2000/svg">
    <path
        d="M15.319 23.663a2 2 0 101.035 3.862l20.242-5.422a2 2 0 10-1.035-3.863L15.32 23.663zM15.63 32.55a2 2 0 011.414-2.448l20.243-5.423a2 2 0 011.035 3.863L18.08 33.965a2 2 0 01-2.45-1.414zM24.29 35.062a2 2 0 101.036 3.863l9.201-2.465a2 2 0 10-1.035-3.863l-9.201 2.465z"
        fill="#B1C909" />
    <path fill-rule="evenodd" clip-rule="evenodd"
        d="M46.068 9.608L26.728 0 5.93 5.57a7.998 7.998 0 00-5.656 9.796L7.968 44.07a8 8 0 009.798 5.655l28.71-7.69a7.998 7.998 0 005.657-9.796l-6.065-22.63zM6.967 9.434L25.83 4.38l1.628 6.073a6 6 0 007.348 4.242l7.915-2.12 5.548 20.699a3.999 3.999 0 01-2.829 4.898l-28.71 7.69a4 4 0 01-4.9-2.827L4.138 14.331a3.999 3.999 0 012.829-4.897zm23.53-3.096l7.024 3.49-3.749 1.004a2 2 0 01-2.45-1.414l-.825-3.08z"
        fill="#B1C909" />
    <path
        d="M210.161 35.413c-1.43 0-2.827-.17-4.192-.511-1.366-.363-2.454-.811-3.264-1.344l1.664-3.583c.768.49 1.696.895 2.784 1.215 1.088.299 2.154.448 3.2.448 2.112 0 3.168-.522 3.168-1.567 0-.49-.288-.843-.864-1.056-.576-.213-1.462-.395-2.656-.544-1.408-.213-2.571-.458-3.488-.736a5.516 5.516 0 01-2.4-1.471c-.662-.704-.992-1.707-.992-3.008 0-1.087.309-2.047.928-2.879.64-.853 1.557-1.514 2.752-1.983 1.216-.47 2.645-.704 4.288-.704 1.216 0 2.421.138 3.616.416 1.216.256 2.218.618 3.008 1.087l-1.664 3.552c-1.515-.854-3.168-1.28-4.96-1.28-1.067 0-1.867.15-2.4.448-.534.298-.8.682-.8 1.151 0 .534.288.907.864 1.12.576.213 1.493.416 2.752.608 1.408.235 2.56.49 3.456.768a5.073 5.073 0 012.336 1.44c.661.703.992 1.684.992 2.943 0 1.066-.32 2.015-.96 2.847-.64.832-1.579 1.482-2.816 1.952-1.216.447-2.667.671-4.352.671zM192.853 31.414c.896 0 1.685-.128 2.368-.384a5.945 5.945 0 001.952-1.28l2.656 2.88c-1.621 1.856-3.989 2.783-7.104 2.783-1.941 0-3.659-.373-5.152-1.12-1.493-.767-2.645-1.823-3.456-3.167-.811-1.343-1.216-2.868-1.216-4.574 0-1.685.395-3.2 1.184-4.543a8.4 8.4 0 013.296-3.167c1.408-.768 2.987-1.152 4.736-1.152 1.643 0 3.136.352 4.48 1.056 1.344.682 2.411 1.684 3.2 3.007.811 1.3 1.216 2.847 1.216 4.639l-12.736 2.463c.363.853.928 1.493 1.696 1.92.789.426 1.749.64 2.88.64zm-.736-9.95c-1.259 0-2.283.406-3.072 1.217-.789.81-1.205 1.93-1.248 3.359l8.384-1.632c-.235-.896-.715-1.61-1.44-2.143-.725-.534-1.6-.8-2.624-.8zM181.893 34.326c-.491.362-1.099.64-1.824.831-.704.171-1.44.256-2.208.256-2.07 0-3.659-.522-4.768-1.567-1.11-1.045-1.664-2.58-1.664-4.607v-15.1h4.992v4.19h4.256v3.84h-4.256v7.006c0 .725.181 1.29.544 1.695.362.384.885.576 1.568.576.768 0 1.45-.213 2.048-.64l1.312 3.52zM158.748 35.413c-1.813 0-3.445-.373-4.896-1.12-1.429-.767-2.549-1.823-3.36-3.167-.811-1.343-1.216-2.868-1.216-4.574 0-1.707.405-3.232 1.216-4.575.811-1.344 1.931-2.389 3.36-3.135 1.451-.768 3.083-1.152 4.896-1.152 1.813 0 3.435.384 4.864 1.152 1.429.746 2.549 1.791 3.36 3.135.811 1.343 1.216 2.868 1.216 4.575 0 1.706-.405 3.23-1.216 4.574-.811 1.344-1.931 2.4-3.36 3.168-1.429.746-3.051 1.12-4.864 1.12zm0-4.095c1.28 0 2.325-.426 3.136-1.28.832-.874 1.248-2.036 1.248-3.486 0-1.45-.416-2.602-1.248-3.456-.811-.874-1.856-1.311-3.136-1.311s-2.336.437-3.168 1.311c-.832.854-1.248 2.005-1.248 3.456 0 1.45.416 2.612 1.248 3.487.832.853 1.888 1.28 3.168 1.28zM137.311 12.38c2.667 0 4.747.842 6.24 2.527 1.494 1.663 2.24 4.041 2.24 7.134v13.116h-5.184V22.201c0-1.792-.426-3.136-1.28-4.031-.832-.917-1.994-1.376-3.488-1.376-1.578 0-2.848.49-3.808 1.472-.938.96-1.408 2.388-1.408 4.287v12.604h-5.184V12.763h5.024v2.72a7.208 7.208 0 012.88-2.304c1.152-.533 2.475-.8 3.968-.8zM120.463 17.946v14.332c0 3.157-.8 5.503-2.4 7.038-1.6 1.536-3.926 2.304-6.976 2.304-1.622 0-3.158-.203-4.608-.608-1.43-.405-2.635-.992-3.616-1.76l1.984-3.583c.725.598 1.61 1.067 2.656 1.408 1.045.341 2.101.512 3.168.512 1.664 0 2.88-.384 3.648-1.152.768-.768 1.152-1.94 1.152-3.519v-.576a6.535 6.535 0 01-2.272 1.472 7.684 7.684 0 01-2.816.512c-2.262 0-4.054-.64-5.376-1.92-1.323-1.3-1.984-3.242-1.984-5.822v-8.638h4.992v7.902c0 2.794 1.162 4.19 3.488 4.19 1.194 0 2.154-.383 2.88-1.151.725-.79 1.088-1.951 1.088-3.487v-7.454h4.992zM89.976 12.38c2.645 0 4.704.778 6.176 2.335 1.472 1.535 2.208 3.764 2.208 6.686v13.756h-5.184V21.561c0-1.578-.416-2.762-1.248-3.551-.81-.81-1.888-1.216-3.232-1.216-1.472 0-2.645.427-3.52 1.28-.875.832-1.312 2.1-1.312 3.807v13.276H78.68V21.561c0-1.578-.384-2.762-1.152-3.551-.768-.81-1.813-1.216-3.136-1.216-1.45 0-2.613.427-3.488 1.28-.875.832-1.312 2.1-1.312 3.807v13.276h-5.184V12.763h5.024v2.751a6.66 6.66 0 012.72-2.303c1.13-.555 2.432-.832 3.904-.832 1.536 0 2.88.288 4.032.864 1.152.554 2.037 1.365 2.656 2.431a7.324 7.324 0 013.008-2.431c1.259-.576 2.667-.864 4.224-.864z"
        fill="#B1C909" />
</svg>